<?xml version="1.0" encoding="UTF-8" standalone="no"?> 
<svg
   xmlns:dc="http://purl.org/dc/elements/1.1/"
   xmlns:cc="http://creativecommons.org/ns#"
   xmlns:rdf="http://www.w3.org/1999/02/22-rdf-syntax-ns#"
   xmlns:svg="http://www.w3.org/2000/svg"
   xmlns="http://www.w3.org/2000/svg"
   xmlns:sodipodi="http://sodipodi.sourceforge.net/DTD/sodipodi-0.dtd"
   xmlns:inkscape="http://www.inkscape.org/namespaces/inkscape"
   version="1.1"
   width="24"
   height="24"
   viewBox="0 0 24 24"
   id="svg4"
   sodipodi:docname="account-circle-outline.svg"
   inkscape:version="1.0.2 (e86c870879, 2021-01-15, custom)">
  <metadata
     id="metadata10">
    <rdf:RDF>
      <cc:Work
         rdf:about="">
        <dc:format>image/svg+xml</dc:format>
        <dc:type
           rdf:resource="http://purl.org/dc/dcmitype/StillImage" />
      </cc:Work>
    </rdf:RDF>
  </metadata>
  <defs
     id="defs8" />
  <sodipodi:namedview
     pagecolor="#ffffff"
     bordercolor="#666666"
     borderopacity="1"
     objecttolerance="10"
     gridtolerance="10"
     guidetolerance="10"
     inkscape:pageopacity="0"
     inkscape:pageshadow="2"
     inkscape:window-width="1366"
     inkscape:window-height="705"
     id="namedview6"
     showgrid="false"
     inkscape:zoom="22.416667"
     inkscape:cx="12"
     inkscape:cy="3.0780669"
     inkscape:window-x="-8"
     inkscape:window-y="-8"
     inkscape:window-maximized="1"
     inkscape:current-layer="layer1" />
  <g
     inkscape:groupmode="layer"
     id="layer2"
     inkscape:label="Layer 2">
    <rect
       style="opacity:1;fill:#696969;stroke-width:138.825;stroke-linecap:round;stroke-linejoin:round;paint-order:stroke fill markers"
       id="rect879"
       width="24"
       height="24"
       x="0"
       y="0"
       rx="0"
       ry="0" />
  </g>
  <g
     inkscape:groupmode="layer"
     id="layer1"
     inkscape:label="Layer 1">
    <path
       d="M 12.000001,2 A 10,10 0 0 0 2,12 a 10,10 0 0 0 10.000001,10 10,10 0 0 0 10,-10 10,10 0 0 0 -10,-10 M 7.0700002,18.28 c 0.43,-0.9 3.0500008,-1.78 4.9300008,-1.78 1.88,0 4.5,0.88 4.93,1.78 -1.36,1.08 -3.07,1.72 -4.93,1.72 -1.86,0 -3.5700012,-0.64 -4.9300008,-1.72 M 18.360001,16.83 c -1.43,-1.74 -4.9,-2.33 -6.36,-2.33 -1.46,0 -4.9300008,0.59 -6.3600008,2.33 C 4.6200002,15.5 4,13.82 4,12 4,7.59 7.5900002,4 12.000001,4 c 4.41,0 8,3.59 8,8 0,1.82 -0.62,3.5 -1.64,4.83 M 12.000001,6 C 10.060001,6 8.4999998,7.56 8.4999998,9.5000001 8.4999998,11.44 10.060001,13 12.000001,13 c 1.94,0 3.5,-1.56 3.5,-3.4999999 C 15.500001,7.56 13.940001,6 12.000001,6 m 0,5 a 1.5,1.5 0 0 1 -1.5,-1.4999999 1.5,1.5 0 0 1 1.5,-1.5 1.5,1.5 0 0 1 1.5,1.5 1.5,1.5 0 0 1 -1.5,1.4999999 z"
       id="path2"
       style="fill:#f5f5f5" />
  </g>
</svg>
