<?xml version="1.0" encoding="UTF-8" standalone="no"?>
<svg
   xmlns:dc="http://purl.org/dc/elements/1.1/"
   xmlns:cc="http://creativecommons.org/ns#"
   xmlns:rdf="http://www.w3.org/1999/02/22-rdf-syntax-ns#"
   xmlns:svg="http://www.w3.org/2000/svg"
   xmlns="http://www.w3.org/2000/svg"
   xmlns:sodipodi="http://sodipodi.sourceforge.net/DTD/sodipodi-0.dtd"
   xmlns:inkscape="http://www.inkscape.org/namespaces/inkscape"
   version="1.1"
   width="24"
   height="24"
   viewBox="0 0 24 24"
   id="svg4"
   sodipodi:docname="check-circle.svg"
   inkscape:version="1.0.2 (e86c870879, 2021-01-15, custom)">
  <metadata
     id="metadata10">
    <rdf:RDF>
      <cc:Work
         rdf:about="">
        <dc:format>image/svg+xml</dc:format>
        <dc:type
           rdf:resource="http://purl.org/dc/dcmitype/StillImage" />
      </cc:Work>
    </rdf:RDF>
  </metadata>
  <defs
     id="defs8" />
  <sodipodi:namedview
     pagecolor="#ffffff"
     bordercolor="#666666"
     borderopacity="1"
     objecttolerance="10"
     gridtolerance="10"
     guidetolerance="10"
     inkscape:pageopacity="0"
     inkscape:pageshadow="2"
     inkscape:window-width="1366"
     inkscape:window-height="705"
     id="namedview6"
     showgrid="false"
     inkscape:zoom="22.416667"
     inkscape:cx="12"
     inkscape:cy="12"
     inkscape:window-x="-8"
     inkscape:window-y="-8"
     inkscape:window-maximized="1"
     inkscape:current-layer="svg4" />
  <path
     d="M12 2C6.5 2 2 6.5 2 12S6.5 22 12 22 22 17.5 22 12 17.5 2 12 2M10 17L5 12L6.41 10.59L10 14.17L17.59 6.58L19 8L10 17Z"
     id="path2"
     style="fill:#58b206;fill-opacity:1" />
  <path
     style="opacity:0.996;fill:#3f8006;fill-opacity:1;stroke-width:6.19871;stroke-linecap:round;stroke-linejoin:round;paint-order:stroke fill markers"
     d="M 7.5169938,14.476102 5.041601,12.000407 5.7098338,11.331059 c 0.3675281,-0.368142 0.6806857,-0.669349 0.6959059,-0.669349 0.01522,0 0.8350384,0.796374 1.8218184,1.769719 l 1.7941459,1.769719 3.788362,-3.788166 3.788363,-3.7881655 0.680234,0.6802344 0.680234,0.6802344 -4.483255,4.4832557 -4.4832554,4.483255 z"
     id="path835" />
</svg>
